<?xml version="1.0" standalone="no"?>
<!DOCTYPE svg PUBLIC "-//W3C//DTD SVG 20010904//EN"
 "http://www.w3.org/TR/2001/REC-SVG-20010904/DTD/svg10.dtd">
<svg version="1.0" xmlns="http://www.w3.org/2000/svg"
 width="500.000000pt" height="500.000000pt" viewBox="0 0 500.000000 500.000000"
 preserveAspectRatio="xMidYMid meet">
<metadata>
Created by potrace 1.14, written by Peter Selinger 2001-2017
</metadata>
<g transform="translate(0.000000,500.000000) scale(0.100000,-0.100000)"
fill="#000000" stroke="none">
<path d="M2606 4339 c-22 -10 -46 -19 -53 -19 -7 0 -13 -4 -13 -10 0 -5 -6
-10 -13 -10 -7 0 -32 -9 -55 -20 -22 -11 -46 -20 -52 -20 -5 0 -18 -4 -28 -9
-17 -8 -45 -17 -132 -40 -25 -7 -59 -17 -76 -22 -17 -5 -40 -9 -52 -9 -11 0
-24 -4 -27 -10 -3 -5 -14 -10 -24 -10 -9 0 -39 -11 -67 -24 -27 -13 -65 -31
-85 -40 -20 -10 -46 -26 -57 -36 -12 -11 -24 -20 -27 -20 -7 0 -98 -61 -105
-70 -12 -17 -48 -28 -73 -23 -16 3 -27 1 -27 -6 0 -24 -19 -9 -25 19 -9 42
-23 46 -48 15 -12 -15 -32 -39 -44 -54 -13 -14 -23 -32 -23 -38 0 -7 -4 -13
-8 -13 -5 0 -21 -27 -36 -60 -15 -33 -32 -60 -37 -60 -5 0 -9 -9 -9 -19 0 -11
-3 -21 -7 -23 -12 -5 -53 -88 -53 -107 0 -9 -4 -21 -9 -27 -22 -23 -55 -453
-68 -869 -3 -128 -9 -203 -16 -207 -8 -5 -8 -16 1 -41 15 -43 15 -76 0 -110
-14 -30 -28 -36 -28 -12 0 26 -33 135 -40 135 -21 0 -39 -55 -46 -134 -6 -72
-4 -86 7 -84 29 6 21 -320 -8 -329 -6 -2 -14 8 -16 24 -3 15 -4 2 -3 -30 2
-42 8 -63 24 -80 20 -21 22 -34 22 -140 0 -128 16 -232 50 -322 17 -47 94
-200 102 -203 4 -2 8 -8 8 -14 0 -13 61 -102 105 -152 6 -6 23 -30 39 -53 44
-66 145 -153 209 -181 20 -9 37 -20 37 -24 0 -5 9 -8 20 -8 11 0 20 -4 20 -8
0 -4 21 -14 48 -21 26 -8 52 -17 57 -21 6 -4 35 -12 65 -18 183 -37 247 -40
355 -17 39 9 87 19 108 22 21 3 40 10 43 14 3 5 16 9 29 9 13 0 26 4 29 8 3 4
28 14 55 22 28 7 51 17 51 22 0 4 7 8 14 8 8 0 50 19 93 41 43 23 88 47 100
53 13 6 23 14 23 19 0 4 5 7 11 7 11 0 95 55 118 78 8 7 26 21 40 30 35 23 62
47 124 111 114 117 167 175 167 182 0 15 44 17 75 2 44 -21 82 -6 130 50 46
53 44 65 -2 28 -44 -34 -103 -51 -103 -29 0 19 24 53 92 127 32 35 58 70 58
78 0 23 57 127 83 151 22 21 26 22 40 8 13 -14 17 -9 32 49 16 59 16 127 0
143 -10 11 -92 -38 -132 -79 -21 -21 -42 -39 -47 -39 -18 0 3 83 28 109 14 15
26 37 26 49 0 12 3 22 8 22 8 0 32 49 32 67 0 7 5 13 10 13 6 0 10 7 10 15 0
8 4 24 10 35 6 11 15 29 20 40 5 11 10 29 10 39 0 11 5 23 10 26 6 3 10 17 10
30 0 13 5 27 10 30 6 3 10 17 10 30 0 13 4 25 8 27 7 3 83 231 102 308 18 73
32 126 41 156 5 17 9 84 9 149 0 65 -4 132 -9 149 -9 29 -24 83 -42 151 -24
95 -57 193 -80 237 -5 10 -9 25 -9 33 0 8 -4 15 -10 15 -5 0 -10 6 -10 14 0
24 -51 106 -66 106 -9 0 -14 -11 -14 -34 0 -35 -26 -68 -38 -50 -4 6 -18 28
-31 50 -14 21 -28 41 -31 44 -11 9 -70 132 -70 146 0 8 -4 14 -10 14 -5 0 -10
6 -10 14 0 17 -42 100 -52 104 -5 2 -8 12 -8 23 0 10 -4 19 -10 19 -5 0 -10 7
-10 15 0 8 -4 15 -9 15 -5 0 -11 9 -14 20 -3 11 -10 20 -15 20 -11 0 -62 -96
-62 -117 0 -7 -4 -13 -10 -13 -5 0 -10 -7 -10 -15 0 -8 -4 -15 -10 -15 -5 0
-10 17 -10 37 0 36 -13 122 -30 193 -5 19 -13 60 -20 90 -15 69 -50 140 -70
140 -8 0 -26 -9 -40 -20 -14 -11 -30 -20 -37 -20 -6 0 -13 -4 -15 -8 -5 -12
-157 -86 -208 -101 -25 -7 -58 -17 -74 -22 -66 -20 -66 -20 -66 95 0 58 -3
107 -8 109 -4 3 -25 -3 -46 -14z m-478 -1079 c23 -11 47 -20 55 -20 7 0 17 -3
20 -7 14 -13 114 -45 206 -64 52 -11 97 -22 100 -24 3 -1 98 -10 211 -20 142
-11 227 -23 277 -38 40 -12 73 -25 73 -29 0 -5 9 -8 20 -8 11 0 20 -4 20 -10
0 -5 7 -10 15 -10 8 0 15 -3 15 -8 0 -6 18 -16 90 -46 50 -20 109 -67 123 -96
9 -16 11 -30 6 -30 -5 0 -9 -14 -9 -30 0 -32 -1 -34 -43 -116 -15 -29 -27 -59
-27 -68 0 -9 -4 -16 -10 -16 -5 0 -10 -9 -10 -20 0 -11 -4 -20 -8 -20 -5 0
-15 -22 -22 -50 -7 -27 -17 -50 -22 -50 -4 0 -8 -13 -8 -30 0 -16 -4 -30 -10
-30 -5 0 -10 -14 -10 -31 0 -44 -20 -117 -36 -130 -9 -8 -14 -8 -14 -1 0 17
-100 78 -150 91 -30 8 -112 11 -248 9 -180 -3 -205 -5 -216 -20 -7 -10 -20
-18 -29 -18 -44 0 -107 -46 -107 -78 0 -10 -4 -22 -9 -27 -16 -17 -31 -114
-31 -197 0 -70 3 -85 22 -105 12 -13 33 -23 47 -23 21 0 31 10 51 48 25 47
107 139 116 129 3 -3 -3 -18 -13 -33 -10 -16 -23 -48 -29 -72 -11 -43 -9 -57
22 -142 8 -22 43 -36 146 -57 19 -3 36 1 54 16 36 28 54 27 54 -4 0 -32 13
-32 49 3 42 40 71 97 71 140 0 42 -33 118 -61 143 -24 21 -24 29 1 29 11 0 20
-4 20 -10 0 -5 6 -10 14 -10 42 0 166 -151 166 -201 0 -24 29 -37 41 -18 37
58 -60 189 -191 261 -45 24 -204 78 -230 78 -11 0 -11 3 -2 12 7 7 56 14 114
17 64 4 103 10 105 18 2 6 -6 14 -19 16 -13 2 -3 2 22 0 40 -4 216 -80 245
-107 12 -10 4 -107 -14 -172 -6 -23 -11 -72 -10 -110 1 -56 -4 -80 -24 -122
-14 -29 -28 -67 -32 -85 -3 -18 -10 -41 -15 -52 -4 -11 -18 -47 -30 -80 -12
-33 -26 -69 -31 -80 -5 -11 -18 -46 -29 -77 -23 -62 -97 -178 -133 -209 -37
-32 -180 -119 -196 -119 -8 0 -55 -24 -105 -54 -98 -58 -198 -106 -221 -106
-7 0 -16 -4 -19 -9 -3 -4 -25 -11 -48 -15 -24 -3 -70 -10 -103 -16 -104 -17
-226 6 -339 62 -49 25 -212 189 -291 294 -8 10 -15 27 -15 36 0 9 -4 18 -9 20
-4 2 -27 37 -50 78 -120 219 -137 282 -119 448 6 53 11 112 12 129 0 18 3 33
6 33 15 1 31 20 39 48 8 25 6 36 -9 55 -13 16 -16 28 -9 38 5 8 8 46 7 84 -2
61 -1 70 14 70 10 0 25 11 34 23 38 54 98 102 129 102 8 0 24 5 35 12 10 7 23
9 27 4 4 -4 0 -12 -10 -17 -57 -32 -97 -102 -97 -167 0 -48 37 -142 56 -142 8
0 22 -4 32 -9 9 -5 37 -14 62 -21 25 -6 57 -15 71 -19 19 -6 33 -3 50 10 13
10 28 19 32 19 4 0 18 10 30 23 26 26 47 89 47 142 0 30 3 35 13 26 8 -6 19
-30 26 -53 8 -24 18 -52 23 -64 5 -11 8 -42 6 -69 -4 -58 13 -68 56 -34 23 18
115 179 102 179 -3 0 1 19 9 41 8 23 15 47 15 53 0 17 -45 66 -61 66 -8 0 -27
7 -44 16 -16 9 -85 38 -153 65 -68 27 -155 65 -193 85 -39 19 -92 38 -118 41
l-48 5 13 74 c7 41 15 78 18 82 2 4 7 23 10 42 3 19 15 78 26 130 12 52 24
113 27 135 3 22 19 81 35 130 17 50 31 97 32 105 3 35 35 40 227 35 158 -5
192 -8 227 -25z m-572 -849 c-7 -11 -115 -45 -122 -38 -3 3 5 14 17 26 16 15
36 21 66 21 25 0 42 -4 39 -9z m114 -106 c20 -24 8 -50 -24 -50 -36 0 -55 26
-35 48 18 20 43 21 59 2z m108 -257 c-3 -7 -17 -15 -33 -16 -25 -3 -27 -2 -16
12 16 19 55 22 49 4z m928 -23 c7 -26 -9 -55 -31 -55 -22 0 -47 37 -40 59 10
32 63 29 71 -4z"/>
<path d="M1926 1757 c-44 -46 -77 -119 -83 -181 -7 -71 20 -108 115 -158 58
-30 84 -38 125 -38 77 0 127 18 169 60 36 35 38 41 38 99 0 34 -4 69 -9 79 -5
9 -16 34 -25 55 -11 27 -22 37 -34 35 -14 -3 -16 -13 -14 -67 5 -84 -9 -115
-64 -140 -53 -25 -61 -25 -130 -5 -60 17 -114 70 -114 112 0 29 25 78 62 120
50 58 17 85 -36 29z"/>
<path d="M1700 1301 c0 -5 14 -19 30 -32 17 -13 39 -37 49 -54 16 -27 63 -56
156 -95 17 -7 80 -15 141 -18 94 -4 113 -2 127 13 21 21 70 35 120 35 30 0 38
3 35 16 -2 12 -23 22 -63 31 -33 7 -76 18 -95 23 -19 5 -60 14 -90 20 -30 7
-71 16 -90 20 -19 5 -62 14 -95 20 -33 6 -79 16 -102 21 -53 12 -123 12 -123
0z"/>
</g>
</svg>
